<?xml version="1.0" encoding="UTF-8" standalone="no"?>
<svg
   width="256"
   height="256"
   viewBox="0 0 256 256"
   version="1.1"
   id="svg13"
   inkscape:version="1.4.4 (dcaf3e7d9e, 2026-05-05)"
   sodipodi:docname="tacky.svg"
   xmlns:inkscape="http://www.inkscape.org/namespaces/inkscape"
   xmlns:sodipodi="http://sodipodi.sourceforge.net/DTD/sodipodi-0.dtd"
   xmlns:xlink="http://www.w3.org/1999/xlink"
   xmlns="http://www.w3.org/2000/svg"
   xmlns:svg="http://www.w3.org/2000/svg">
  <defs
     id="defs8">
    <linearGradient
       id="bubbleGrad">
      <stop
         style="stop-color:#86c837;stop-opacity:1;"
         offset="0"
         id="stop1" />
      <stop
         style="stop-color:#428c00;stop-opacity:1;"
         offset="1"
         id="stop2" />
    </linearGradient>
    <linearGradient
       id="bulbGlass">
      <stop
         style="stop-color:#fffde7;stop-opacity:1;"
         offset="0"
         id="stop3" />
      <stop
         style="stop-color:#ffe082;stop-opacity:1;"
         offset="0.6"
         id="stop4" />
      <stop
         style="stop-color:#ffb300;stop-opacity:1;"
         offset="1"
         id="stop5" />
    </linearGradient>
    <linearGradient
       xlink:href="#bubbleGrad"
       id="linearGradient1"
       gradientUnits="userSpaceOnUse"
       x1="128"
       y1="24"
       x2="128"
       y2="226" />
    <linearGradient
       xlink:href="#bulbGlass"
       id="linearGradient2"
       gradientUnits="userSpaceOnUse"
       x1="128"
       y1="50"
       x2="128"
       y2="146" />
  </defs>
  <sodipodi:namedview
     id="namedview13"
     pagecolor="#ffffff"
     bordercolor="#000000"
     borderopacity="0.25"
     inkscape:showpageshadow="2"
     inkscape:pageopacity="0.0"
     inkscape:pagecheckerboard="0"
     inkscape:deskcolor="#d1d1d1"
     inkscape:zoom="3.4380726"
     inkscape:cx="73.733172"
     inkscape:cy="77.950652"
     inkscape:window-width="1920"
     inkscape:window-height="1029"
     inkscape:window-x="0"
     inkscape:window-y="0"
     inkscape:window-maximized="1"
     inkscape:current-layer="layer1" />
  <g
     inkscape:label="Layer 1"
     inkscape:groupmode="layer"
     id="layer1">
    <path
       id="path8"
       style="fill:url(#linearGradient1);stroke:#2e6b00;stroke-width:3;stroke-linejoin:round"
       d="m 48,24 h 160 a 24,24 0 0 1 24,24 v 120 a 24,24 0 0 1 -24,24 h -98 l -40,34 a 4,4 0 0 1 -6.5,-3.5 l 6.5,-30.5 h -22 a 24,24 0 0 1 -24,-24 V 48 a 24,24 0 0 1 24,-24 z" />
    <path
       id="path9"
       style="fill:#ffffff;opacity:0.18"
       d="m 48,32 h 152 a 16,16 0 0 1 16,16 v 38 q -88,24 -176,0 v -38 a 16,16 0 0 1 8,-16 z" />
    <path
       id="bevel"
       style="fill:none;stroke:#ffffff;stroke-width:2.5;stroke-linecap:round;stroke-opacity:0.45"
       d="m 52,28 h 152 a 20,20 0 0 1 20,20 v 12" />
    <path
       id="path10"
       style="fill:url(#linearGradient2);stroke:#7a4f00;stroke-width:3;stroke-linejoin:round"
       d="m 128,50 c -24,0 -40,18 -40,40 0,14 8,24 16,34 6,8 8,14 8,22 h 32 c 0,-8 2,-14 8,-22 8,-10 16,-20 16,-34 0,-22 -16,-40 -40,-40 z" />
    <path
       id="path11"
       style="fill:none;stroke:#7a4f00;stroke-width:2.5;stroke-linecap:round"
       d="M 111.99706,117.68758 116,100 c 6,-24 15.70665,20.36886 23.71333,0 3.96222,-10.160935 3.14664,11.16391 5.14996,18.10754"
       sodipodi:nodetypes="cccc" />
    <path
       id="path12"
       style="fill:none;stroke:#ffffff;stroke-width:4;stroke-linecap:round;opacity:0.7"
       d="m 104,76 q -4,14 2,28" />
    <path
       id="rect12"
       style="fill:#9e9e9e;stroke:#424242;stroke-width:2"
       d="m 112,148 h 32 c 1.108,0 2,0.892 2,2 v 4 c 0,1.108 -0.892,2 -2,2 h -32 c -1.108,0 -2,-0.892 -2,-2 v -4 c 0,-1.108 0.892,-2 2,-2 z" />
    <path
       id="rect13"
       style="fill:#bdbdbd;stroke:#424242;stroke-width:2"
       d="m 113,158 h 30 c 0.554,0 1,0.446 1,1 v 4 c 0,0.554 -0.446,1 -1,1 h -30 c -0.554,0 -1,-0.446 -1,-1 v -4 c 0,-0.554 0.446,-1 1,-1 z" />
    <path
       id="path13"
       style="fill:#616161;stroke:#424242;stroke-width:2;stroke-linejoin:round"
       d="m 116,166 4,8 h 16 l 4,-8 z" />
  </g>
</svg>
