<?xml version="1.0" encoding="UTF-8" standalone="no"?>
<svg
   viewBox="0 0 256 256"
   width="256"
   height="256"
   version="1.1"
   id="svg13"
   sodipodi:docname="chat-logo-v2-green.svg"
   inkscape:version="1.4.4 (dcaf3e7d9e, 2026-05-05)"
   xmlns:inkscape="http://www.inkscape.org/namespaces/inkscape"
   xmlns:sodipodi="http://sodipodi.sourceforge.net/DTD/sodipodi-0.dtd"
   xmlns="http://www.w3.org/2000/svg"
   xmlns:svg="http://www.w3.org/2000/svg">
  <sodipodi:namedview
     id="namedview13"
     pagecolor="#ffffff"
     bordercolor="#000000"
     borderopacity="0.25"
     inkscape:showpageshadow="2"
     inkscape:pageopacity="0.0"
     inkscape:pagecheckerboard="0"
     inkscape:deskcolor="#d1d1d1"
     inkscape:zoom="3.4380726"
     inkscape:cx="73.442312"
     inkscape:cy="146.88462"
     inkscape:window-width="1920"
     inkscape:window-height="1028"
     inkscape:window-x="0"
     inkscape:window-y="0"
     inkscape:window-maximized="1"
     inkscape:current-layer="svg13" />
  <defs
     id="defs8">
    <linearGradient
       id="bubbleGrad"
       x1="0%"
       y1="0%"
       x2="0%"
       y2="100%">
      <stop
         offset="0%"
         stop-color="#86C837"
         id="stop1" />
      <stop
         offset="100%"
         stop-color="#428C00"
         id="stop2" />
    </linearGradient>
    <linearGradient
       id="bulbGlass"
       x1="0%"
       y1="0%"
       x2="0%"
       y2="100%">
      <stop
         offset="0%"
         stop-color="#FFFDE7"
         id="stop3" />
      <stop
         offset="60%"
         stop-color="#FFE082"
         id="stop4" />
      <stop
         offset="100%"
         stop-color="#FFB300"
         id="stop5" />
    </linearGradient>
    <radialGradient
       id="glow"
       cx="50%"
       cy="45%"
       r="55%">
      <stop
         offset="0%"
         stop-color="#FFFFFF"
         stop-opacity="0.95"
         id="stop6" />
      <stop
         offset="60%"
         stop-color="#FFFDE7"
         stop-opacity="0.3"
         id="stop7" />
      <stop
         offset="100%"
         stop-color="#FFFDE7"
         stop-opacity="0"
         id="stop8" />
    </radialGradient>
  </defs>
  <path
     d="M 48 24            H 208            a 24 24 0 0 1 24 24            V 168            a 24 24 0 0 1 -24 24            H 110            L 70 226            a 4 4 0 0 1 -6.5 -3.5            L 70 192            H 48            a 24 24 0 0 1 -24 -24            V 48            a 24 24 0 0 1 24 -24 Z"
     fill="url(#bubbleGrad)"
     stroke="#2E6B00"
     stroke-width="3"
     stroke-linejoin="round"
     id="path8" />
  <path
     d="M 48 32            H 200            a 16 16 0 0 1 16 16            V 86            Q 128 110 40 86            V 48            a 16 16 0 0 1 8 -16 Z"
     fill="#FFFFFF"
     opacity="0.18"
     id="path9" />
  <circle
     cx="128"
     cy="100"
     r="62"
     fill="url(#glow)"
     id="circle9" />
  <path
     d="M 128 50            C 104 50 88 68 88 90            C 88 104 96 114 104 124            C 110 132 112 138 112 146            H 144            C 144 138 146 132 152 124            C 160 114 168 104 168 90            C 168 68 152 50 128 50 Z"
     fill="url(#bulbGlass)"
     stroke="#7A4F00"
     stroke-width="3"
     stroke-linejoin="round"
     id="path10" />
  <path
     d="M 111.99706,117.68758 116,100 c 6,-24 15.70665,20.36886 23.71333,0 3.96222,-10.160935 3.14664,11.16391 5.14996,18.10754"
     fill="none"
     stroke="#7a4f00"
     stroke-width="2.5"
     stroke-linecap="round"
     id="path11"
     sodipodi:nodetypes="cccc" />
  <path
     d="M 104 76            Q 100 90 106 104"
     fill="none"
     stroke="#FFFFFF"
     stroke-width="4"
     stroke-linecap="round"
     opacity="0.7"
     id="path12" />
  <rect
     x="110"
     y="148"
     width="36"
     height="8"
     rx="2"
     fill="#9E9E9E"
     stroke="#424242"
     stroke-width="2"
     id="rect12" />
  <rect
     x="112"
     y="158"
     width="32"
     height="6"
     rx="1"
     fill="#BDBDBD"
     stroke="#424242"
     stroke-width="2"
     id="rect13" />
  <path
     d="M 116 166            L 120 174            H 136            L 140 166 Z"
     fill="#616161"
     stroke="#424242"
     stroke-width="2"
     stroke-linejoin="round"
     id="path13" />
</svg>
